<?xml version="1.0" standalone="no"?><!DOCTYPE svg PUBLIC "-//W3C//DTD SVG 1.1//EN" "http://www.w3.org/Graphics/SVG/1.1/DTD/svg11.dtd"><svg t="1652441739728" class="icon" viewBox="0 0 1024 1024" version="1.1" xmlns="http://www.w3.org/2000/svg" p-id="2085" xmlns:xlink="http://www.w3.org/1999/xlink" width="32" height="32"><defs><style type="text/css">@font-face { font-family: feedback-iconfont; src: url("//at.alicdn.com/t/font_1031158_u69w8yhxdu.woff2?t=1630033759944") format("woff2"), url("//at.alicdn.com/t/font_1031158_u69w8yhxdu.woff?t=1630033759944") format("woff"), url("//at.alicdn.com/t/font_1031158_u69w8yhxdu.ttf?t=1630033759944") format("truetype"); }
</style></defs><path d="M512 1024a512 512 0 1 1 512-512 512.520855 512.520855 0 0 1-512 512z m0-971.914547a459.914547 459.914547 0 1 0 459.914547 459.914547A460.435402 460.435402 0 0 0 512 52.085453z" p-id="2086"></path><path d="M660.703967 674.76704a26.042726 26.042726 0 0 1-18.750763-7.812818l-281.001017-286.46999a26.042726 26.042726 0 0 1 0-36.980671 26.042726 26.042726 0 0 1 36.720244 0l281.001018 286.469989a26.042726 26.042726 0 0 1-18.490336 44.272635z" p-id="2087"></path><path d="M376.577823 671.641913a26.042726 26.042726 0 0 1-18.490336-7.812818 26.042726 26.042726 0 0 1 0-36.720245l286.46999-281.001017a26.042726 26.042726 0 0 1 36.720244 0 26.042726 26.042726 0 0 1 0 36.980672l-286.46999 281.001017a26.042726 26.042726 0 0 1-18.229908 7.552391z" p-id="2088"></path></svg>