<?xml version="1.0" standalone="no"?><!DOCTYPE svg PUBLIC "-//W3C//DTD SVG 1.1//EN" "http://www.w3.org/Graphics/SVG/1.1/DTD/svg11.dtd"><svg t="1652873918571" class="icon" viewBox="0 0 1062 1024" version="1.1" xmlns="http://www.w3.org/2000/svg" p-id="751" xmlns:xlink="http://www.w3.org/1999/xlink" width="132.75" height="128"><defs><style type="text/css">@font-face { font-family: feedback-iconfont; src: url("//at.alicdn.com/t/font_1031158_u69w8yhxdu.woff2?t=1630033759944") format("woff2"), url("//at.alicdn.com/t/font_1031158_u69w8yhxdu.woff?t=1630033759944") format("woff"), url("//at.alicdn.com/t/font_1031158_u69w8yhxdu.ttf?t=1630033759944") format("truetype"); }
</style></defs><path d="M0 0m98.282574 0l245.699918 0q98.282574 0 98.282574 98.282574l0 245.699918q0 98.282574-98.282574 98.282574l-245.699918 0q-98.282574 0-98.282574-98.282574l0-245.699918q0-98.282574 98.282574-98.282574Z" p-id="752" fill="#ffffff"></path><path d="M0 548.028637m98.282574 0l245.699918 0q98.282574 0 98.282574 98.282574l0 245.699919q0 98.282574-98.282574 98.282574l-245.699918 0q-98.282574 0-98.282574-98.282574l0-245.699919q0-98.282574 98.282574-98.282574Z" p-id="753" fill="#ffffff"></path><path d="M562.456274 0m98.282574 0l245.699919 0q98.282574 0 98.282574 98.282574l0 245.699918q0 98.282574-98.282574 98.282574l-245.699919 0q-98.282574 0-98.282574-98.282574l0-245.699918q0-98.282574 98.282574-98.282574Z" p-id="754" fill="#ffffff"></path><path d="M1054.468667 977.495204l-96.014816-96.014815a213.299643 213.299643 0 1 0-33.886048 43.11348l91.427165 91.427166a27.241776 27.241776 0 0 0 38.525831-38.525831z m-279.286206-45.707066a160.307076 160.307076 0 1 1 160.307076-160.241911 160.241911 160.241911 0 0 1-160.307076 160.241911z" p-id="755" fill="#ffffff"></path></svg>