<?xml version="1.0" standalone="no"?><!DOCTYPE svg PUBLIC "-//W3C//DTD SVG 1.1//EN" "http://www.w3.org/Graphics/SVG/1.1/DTD/svg11.dtd"><svg t="1652879814022" class="icon" viewBox="0 0 1024 1024" version="1.1" xmlns="http://www.w3.org/2000/svg" p-id="28165" xmlns:xlink="http://www.w3.org/1999/xlink" width="128" height="128"><defs><style type="text/css">@font-face { font-family: feedback-iconfont; src: url("//at.alicdn.com/t/font_1031158_u69w8yhxdu.woff2?t=1630033759944") format("woff2"), url("//at.alicdn.com/t/font_1031158_u69w8yhxdu.woff?t=1630033759944") format("woff"), url("//at.alicdn.com/t/font_1031158_u69w8yhxdu.ttf?t=1630033759944") format("truetype"); }
</style></defs><path d="M816 576h-31.744v-253.152c0-143.424-119.872-260.096-267.2-260.096-147.328 0-267.2 116.672-267.2 260.096V576H208C163.904 576 128 611.872 128 656S163.904 736 208 736H384v112.576a32 32 0 1 0 64 0V736h128v176.576a32 32 0 1 0 64 0V736h176c44.128 0 80-35.872 80-80S860.128 576 816 576zM313.888 322.848c0-108.128 91.168-196.096 203.2-196.096s203.2 87.968 203.2 196.096V576h-406.4v-253.152zM816 672h-608a16 16 0 0 1 0-32h608c8.8 0 16 7.2 16 16s-7.2 16-16 16z" p-id="28166" fill="#1afa29"></path></svg>