<?xml version="1.0" standalone="no"?><!DOCTYPE svg PUBLIC "-//W3C//DTD SVG 1.1//EN" "http://www.w3.org/Graphics/SVG/1.1/DTD/svg11.dtd"><svg t="1652786753924" class="icon" viewBox="0 0 1024 1024" version="1.1" xmlns="http://www.w3.org/2000/svg" p-id="9582" xmlns:xlink="http://www.w3.org/1999/xlink" width="128" height="128"><defs><style type="text/css">@font-face { font-family: feedback-iconfont; src: url("//at.alicdn.com/t/font_1031158_u69w8yhxdu.woff2?t=1630033759944") format("woff2"), url("//at.alicdn.com/t/font_1031158_u69w8yhxdu.woff?t=1630033759944") format("woff"), url("//at.alicdn.com/t/font_1031158_u69w8yhxdu.ttf?t=1630033759944") format("truetype"); }
</style></defs><path d="M160 224v576c0 35.296 28.704 64 64 64h576c35.296 0 64-28.704 64-64V224c0-35.296-28.704-64-64-64H224c-35.296 0-64 28.704-64 64z m640.032 576H224V224h576l0.032 576zM544 96V32a32 32 0 0 0-64 0v64a32 32 0 0 0 64 0zM448 96V32a32 32 0 0 0-64 0v64a32 32 0 0 0 64 0zM352 96V32a32 32 0 0 0-64 0v64a32 32 0 0 0 64 0zM640 96V32a32 32 0 0 0-64 0v64a32 32 0 0 0 64 0zM736 96V32a32 32 0 0 0-64 0v64a32 32 0 0 0 64 0zM480 928v64a32 32 0 0 0 64 0v-64a32 32 0 0 0-64 0zM384 928v64a32 32 0 0 0 64 0v-64a32 32 0 0 0-64 0zM288 928v64a32 32 0 0 0 64 0v-64a32 32 0 0 0-64 0zM576 928v64a32 32 0 0 0 64 0v-64a32 32 0 0 0-64 0zM672 928v64a32 32 0 0 0 64 0v-64a32 32 0 0 0-64 0zM992 480h-64a32 32 0 0 0 0 64h64a32 32 0 0 0 0-64zM992 384h-64a32 32 0 0 0 0 64h64a32 32 0 0 0 0-64zM992 288h-64a32 32 0 0 0 0 64h64a32 32 0 0 0 0-64zM992 576h-64a32 32 0 0 0 0 64h64a32 32 0 0 0 0-64zM992 672h-64a32 32 0 0 0 0 64h64a32 32 0 0 0 0-64zM32 544h64a32 32 0 0 0 0-64H32a32 32 0 0 0 0 64zM32 448h64a32 32 0 0 0 0-64H32a32 32 0 0 0 0 64zM32 352h64a32 32 0 0 0 0-64H32a32 32 0 0 0 0 64zM32 640h64a32 32 0 0 0 0-64H32a32 32 0 0 0 0 64zM96 736a32 32 0 0 0 0-64H32a32 32 0 0 0 0 64h64z" fill="#5465CF" p-id="9583"></path><path d="M288 288m-32 0a32 32 0 1 0 64 0 32 32 0 1 0-64 0Z" fill="#5465CF" p-id="9584"></path><path d="M736 288m-32 0a32 32 0 1 0 64 0 32 32 0 1 0-64 0Z" fill="#5465CF" p-id="9585"></path><path d="M736 736m-32 0a32 32 0 1 0 64 0 32 32 0 1 0-64 0Z" fill="#5465CF" p-id="9586"></path><path d="M288 736m-32 0a32 32 0 1 0 64 0 32 32 0 1 0-64 0Z" fill="#5465CF" p-id="9587"></path></svg>