<?xml version="1.0" standalone="no"?><!DOCTYPE svg PUBLIC "-//W3C//DTD SVG 1.1//EN" "http://www.w3.org/Graphics/SVG/1.1/DTD/svg11.dtd"><svg t="1652786230824" class="icon" viewBox="0 0 1024 1024" version="1.1" xmlns="http://www.w3.org/2000/svg" p-id="14001" width="128" height="128" xmlns:xlink="http://www.w3.org/1999/xlink"><defs><style type="text/css">@font-face { font-family: feedback-iconfont; src: url("//at.alicdn.com/t/font_1031158_u69w8yhxdu.woff2?t=1630033759944") format("woff2"), url("//at.alicdn.com/t/font_1031158_u69w8yhxdu.woff?t=1630033759944") format("woff"), url("//at.alicdn.com/t/font_1031158_u69w8yhxdu.ttf?t=1630033759944") format("truetype"); }
</style></defs><path d="M794.08 312.64A279.616 279.616 0 1 1 514.432 32a280.128 280.128 0 0 1 279.616 280.64z m0 0l-48.832 293.856A371.776 371.776 0 0 1 281.6 604.8C109.056 668.416 32 890.56 32 992h960c0-100.544-77.664-321.152-246.784-385.504z m0 0" fill="#5866D0" p-id="14002" data-spm-anchor-id="a313x.7781069.0.i5" class="selected"></path><path d="M794.08 312.64A279.616 279.616 0 1 1 514.432 32a280.128 280.128 0 0 1 279.616 280.64z m0 0" fill="#F17254" p-id="14003" data-spm-anchor-id="a313x.7781069.0.i4" class=""></path></svg>